# xmcd
#
# Track frame offsets:
#	150
#	16116
#	32229
#	43955
#	56183
#	71164
#	84936
#	98596
#	107644
#	124384
#	139629
#	153456
#	170697
#	184494
#	198189
#	211108
#
# Disc length: 2966 seconds
#
# Revision: 0
# Processed by: cddbd v1.5.1PL0 Copyright (c) Steve Scherf et al.
# Submitted via: dBpowerAMP V4.0
#
DISCID=e20b9410
DTITLE=FILLIPOS NIKOLAOY - Old Songs
DYEAR=1900
DGENRE=
TTITLE0=May mou
TTITLE1=Tosi kardia tosi agapi
TTITLE2=Fylla fthinoporina
TTITLE3=Ase na leei
TTITLE4=Otan
TTITLE5=Opou o egoismos
TTITLE6=Tha se perimeno
TTITLE7=Logia logia logia
TTITLE8=Mou hrostas den sou hrostao
TTITLE9=Sto adeio mou paketo
TTITLE10=E re kai na 'hame
TTITLE11=Ma tora
TTITLE12=Makar
TTITLE13=Mia kardia gia senane
TTITLE14=H agapi sou me kaiei
TTITLE15=Megiemele
EXTD=Fillipos Nikolaou
EXTT0=
EXTT1=
EXTT2=
EXTT3=
EXTT4=
EXTT5=
EXTT6=
EXTT7=
EXTT8=
EXTT9=
EXTT10=
EXTT11=
EXTT12=
EXTT13=
EXTT14=
EXTT15=
PLAYORDER=
